<?xml version="1.0" encoding="utf-8"?>
<!-- Generator: Adobe Illustrator 16.0.0, SVG Export Plug-In . SVG Version: 6.00 Build 0)  -->
<!DOCTYPE svg PUBLIC "-//W3C//DTD SVG 1.1//EN" "http://www.w3.org/Graphics/SVG/1.1/DTD/svg11.dtd">
<svg version="1.1" id="Layer_1" xmlns="http://www.w3.org/2000/svg" xmlns:xlink="http://www.w3.org/1999/xlink" x="0px" y="0px"
	 width="256px" height="256px" viewBox="0 0 256 256" enable-background="new 0 0 256 256" xml:space="preserve">
<path fill="none" stroke="#939598" stroke-width="10" stroke-miterlimit="10" d="M249.032,235.771
	c0,7.396-6.135,13.391-13.703,13.391H20.866c-7.567,0-13.703-5.995-13.703-13.391V20.407c0-7.396,6.135-13.391,13.703-13.391
	h214.463c7.568,0,13.703,5.995,13.703,13.391V235.771z"/>
<g>
	<path fill="#F1F2F2" d="M203.821,85.277c0,0-46.11-53.314-93.372-36.023C63.187,66.545,74.714,57.612,49.354,92.77
		s-19.02,43.803,24.208,72.91s125.647,63.977,137.752,31.412s16.716-46.974-4.61-60.519c-21.326-13.544-12.68-5.763-56.484-3.746
		c-43.804,2.018-87.32-14.409-43.804,4.323c43.516,18.731,73.776,19.596,59.943,33.141s-68.012,4.899-80.404-19.885
		c-12.392-24.784-55.908-23.918-5.764-48.991s38.617-37.176,78.386-26.225S203.821,85.277,203.821,85.277z"/>
	<g>
		<g>
			<g>
				<g>
					<path d="M202.775,82.823c0.304,0.022,0.506,0.014,0.639-0.015c0.092-0.012,0.061-0.038,0.05-0.06
						c-0.011-0.031-0.02-0.053-0.026-0.073c-0.032-0.101-0.025-0.233-0.067-0.255c0.239-0.024-0.109,0.006-0.245,0.012
						c-0.159,0.014-0.279,0.034-0.369,0.059c-0.177,0.05-0.239,0.109-0.235,0.167C202.538,82.779,202.796,82.877,202.775,82.823z"/>
					<polygon points="178.768,78.944 179.232,78.884 175.603,78.41 					"/>
					<path d="M156.426,73.071c1.952,1.262,8.126,2.056,12.038,3.367l0.614,0.333l1.938-0.076
						C166.158,75.488,159.812,74.184,156.426,73.071z"/>
					<path d="M144.496,68.838c0.729,0.42-2.755-0.256,2.916,0.615c-0.273-0.093-0.354-0.121-0.513-0.175
						C146.391,69.185,145.689,69.057,144.496,68.838z"/>
					<path d="M146.899,69.278C149.363,69.754,145.333,68.725,146.899,69.278L146.899,69.278z"/>
					<path d="M135.034,68.327c0,0,0.877-0.098,1.753-0.163c0.869-0.034,1.739-0.069,1.739-0.069
						c-0.359-0.091-1.314-0.183-2.044-0.234c-0.737-0.026-1.238-0.05-0.646-0.126c-1.828,0.091-2.567,0.319-2.563,0.388
						C133.271,68.23,134.004,68.221,135.034,68.327z"/>
					<path d="M131.762,69.187c0,0,0.447-0.098,0.895-0.196c0.449-0.07,0.898-0.14,0.898-0.14
						C133.23,68.824,132.739,68.803,131.762,69.187z"/>
					<path d="M137.365,68.5c0,0-0.944,0.017-1.902,0.119c-0.95,0.058-1.908,0.231-1.908,0.231c0.514,0.083,0.576,0.253,1.749-0.196
						C135.002,68.895,135.752,68.606,137.365,68.5z"/>
					<path d="M139.486,68.713c0.944,0.151,2.017,0.314,2.419,0.457c0.403,0.142,0.173,0.154-1.513,0.122
						c3.183,0.277,4.516,0.417,4.309,0.245C144.49,69.386,142.73,68.921,139.486,68.713z"/>
					<path d="M155.093,73.479l2.277,0.825l2.075,0.308C158.413,74.459,155.005,73.221,155.093,73.479z"/>
					<path d="M115.204,76.208c-0.08,0.24,1.131-0.295,1.436-0.271l1.911-1.506C117.445,75.039,115.46,76.297,115.204,76.208z"/>
					<path d="M116.64,75.937l-2.771,2.265C116.477,76.393,116.912,75.957,116.64,75.937z"/>
					<path d="M131.284,70.072c0,0,1.502-0.427,3.048-0.669c0.77-0.122,1.541-0.191,2.124-0.265c0.58-0.051,0.964-0.064,0.964-0.064
						s-1.846,0.068-3.684,0.389c-1.844,0.274-3.617,0.869-3.617,0.869s0.29-0.073,0.58-0.146
						C130.988,70.113,131.284,70.071,131.284,70.072z"/>
					<polygon points="104.139,83.881 105.587,82.485 102.945,84.883 					"/>
					<path d="M96.708,88.683c1.1-1.006-1.976,0.621-0.744-0.335c-2.015,1.299-3.676,2.521-5.161,3.643
						C92.439,90.899,94.276,89.896,96.708,88.683z"/>
					<path d="M88.248,93.791c0.823-0.539,1.651-1.144,2.555-1.8C89.922,92.56,89.072,93.145,88.248,93.791z"/>
					<path d="M108.901,81.612c-0.276,0.079-0.845,0.178-2.52,1.209l1.378-0.431C108.108,82.153,108.5,81.885,108.901,81.612z"/>
					<path d="M107.807,82.374l-0.048,0.016c-1.245,0.832-2.11,1.41-2.481,1.657C105.597,83.836,106.357,83.333,107.807,82.374z"/>
					<path d="M109.188,81.413c-0.104,0.072-0.184,0.127-0.288,0.199C109.037,81.57,109.108,81.536,109.188,81.413z"/>
					<path d="M121.999,73.306c-1.779,1.293-5.252,3.97-1.496,1.926C121.642,74.174,119.404,75.289,121.999,73.306z"/>
					<path d="M110.904,80.862l3.126-2.091c-0.121-0.052-0.777,0.21,0.003-0.487L110.904,80.862z"/>
					<polygon points="109.484,82.024 110.904,80.862 109.748,81.629 					"/>
					<path d="M93.982,90.991c-1.292,0.971-2.807,1.871-4.537,2.855c1.915-0.953,3.836-2.03,5.648-3.086
						C95.271,90.489,95.947,89.831,93.982,90.991z"/>
					<path d="M100.801,86.965c-0.094,0.069-0.207,0.151-0.29,0.211C100.715,87.091,100.873,87.005,100.801,86.965z"/>
					<path d="M71.938,103.061c0.112-0.032,0.207-0.059,0.324-0.091c0.005-0.032,0.011-0.062,0.025-0.099L71.938,103.061z"/>
					<path d="M95.442,90.645c1.409-0.757,2.176-1.344,2.889-1.929c-1,0.655-2.073,1.34-3.237,2.045
						C95.006,90.879,95.009,90.931,95.442,90.645z"/>
					<path d="M83.531,96.556c0.779-0.315,1.647-0.693,2.561-1.101C85.31,95.719,83.744,96.316,83.531,96.556z"/>
					<path d="M99.99,87.365c0.063-0.046,0.125-0.093,0.194-0.145C99.689,87.422,99.767,87.427,99.99,87.365z"/>
					<path d="M99.99,87.365c-0.663,0.489-1.154,0.925-1.659,1.351c0.807-0.545,1.551-1.069,2.181-1.539
						C100.323,87.259,100.135,87.323,99.99,87.365z"/>
					<path d="M68.108,108.477c0.014-0.503,3.495-3.034,6.95-4.374c3.057-1.942,0.37-2.031-2.795-1.134
						c-0.014,0.223,0.04,0.319-3.105,2.414c0.624-0.243,2.5-1.173,3.904-1.777c1.408-0.595,2.328-0.904,1.022,0.001
						c-2.13,1.269-3.023,1.751-3.671,2.025c-0.65,0.271-1.047,0.345-2.139,0.881c1.01-0.317-0.264,0.642-1.584,1.731
						c-1.322,1.095-2.66,2.34-2.012,2.327c0,0,0.839-0.679,1.712-1.316c0.862-0.654,1.753-1.27,1.753-1.27
						C68.271,108.04,67.042,109.024,68.108,108.477z"/>
					<path d="M78.635,99.673l1.336-0.736c-1.565,0.729-2.792,1.146-4.993,1.955c-2.201,1.384-2.597,1.776-2.69,1.979
						c0,0,1.684-0.91,3.383-1.776c1.695-0.877,3.404-1.711,3.404-1.711L78.635,99.673z"/>
					<path d="M86.019,95.79c-0.831,0.949-3.991,2.801-1.791,2.182c3.931-2.145,2.605-1.775,4.851-3.235
						c-6.283,3.526,1.714-1.174-2.985,1.07c1.223-0.715,2.318-1.355,3.352-1.959c-1.151,0.591-2.278,1.133-3.354,1.608
						c0.064-0.022,0.106-0.037,0.158-0.054l0.029-0.017c0.001,0.002-0.002,0.006-0.001,0.008c0.299-0.099,0.4-0.116,0.077,0.021
						c-0.014,0.014-0.09,0.057-0.124,0.076c-0.014,0.076-0.109,0.186-0.213,0.299c-1.876,0.901-0.339,0.054,0.213-0.299
						c0.007-0.027,0.049-0.073,0.047-0.097L86.25,95.4c0,0-1.562,0.896-3.124,1.792c-1.577,0.872-3.154,1.745-3.154,1.745
						C81.353,98.285,83.067,97.444,86.019,95.79z"/>
					<path d="M117.774,78.174c-0.207,0.098-0.216,0.066-0.246,0.049C117.173,78.535,117.045,78.668,117.774,78.174z"/>
					<path d="M115.178,79.679c0.398-0.353,0.652-0.753,2.092-1.7c1.3-0.75,0.113,0.172,0.259,0.244
						c0.776-0.688,2.828-2.303,0.01-0.639l-0.385,0.34c-2.492,1.561-5.857,3.302-5.476,2.954
						C112.596,80.704,113.368,80.494,115.178,79.679z"/>
					<path d="M100.733,88.47c0,0-1.237,0.859-2.5,1.68c-1.261,0.825-2.523,1.649-2.523,1.649l2.819-1.269l-0.25-0.11
						C101.245,88.698,100.459,88.837,100.733,88.47z"/>
					<path d="M71.221,103.214l0.494-0.795c0,0-0.7,0.575-1.4,1.15c-0.693,0.585-1.385,1.17-1.385,1.17L71.221,103.214z"/>
					<path d="M64.355,107.442l0.03-0.494c0,0-0.42,0.341-0.832,0.706c-0.412,0.359-0.824,0.719-0.824,0.719s0.406-0.235,0.813-0.47
						C63.947,107.665,64.355,107.442,64.355,107.442z"/>
					<path d="M206.973,206.897c0,0.001-0.371,0.343-0.769,0.646c-0.402,0.298-0.805,0.596-0.805,0.596
						c0.384-0.278,0.699-0.507,0.964-0.699C206.608,207.223,206.807,207.046,206.973,206.897z"/>
					<path d="M214.581,195.188l-0.074-0.362C214.4,195.424,214.389,195.681,214.581,195.188z"/>
					<path d="M136.957,145.992c-2.331-1.172-4.864-2.648-4.714-2.13l0.608,0.669C134.579,145.044,135.871,145.524,136.957,145.992z"
						/>
					<path d="M168.225,131.339c-0.253-0.017-0.511-0.033-0.768-0.05c-0.607,0.214-1.185,0.417-1.697,0.599
						C166.5,131.723,167.345,131.535,168.225,131.339z"/>
					<path d="M169.822,129.358l3.394-0.159C172.452,129.2,171.357,129.248,169.822,129.358z"/>
					<path d="M136.813,201.561l-2.114-0.344C137.765,202.399,136.496,201.67,136.813,201.561z"/>
					<path d="M101.116,168.208c1.939,1.297,3.571,2.157,5.018,2.882c-1.198-0.734-2.269-1.397-3.111-1.948
						C102.18,168.59,101.53,168.229,101.116,168.208z"/>
					<path d="M207.223,200.099c-0.506,0.8-0.702,1.18-0.618,1.212C207.177,200.495,207.428,199.993,207.223,200.099z"/>
					<path d="M112.298,173.64c-0.365-0.178-0.729-0.355-1.102-0.538c-1.604-0.52-3.187-1.146-5.062-2.012
						c0.902,0.503,1.887,1.011,2.918,1.479C110.096,172.998,111.192,173.371,112.298,173.64z"/>
					<path d="M119.746,44.237c0.195-0.012,0.429-0.027,0.604-0.039C120.4,44.132,120.132,44.169,119.746,44.237z"/>
					<path d="M186.938,71.937c-0.566-0.444-1.494-1.17-2.368-1.855C184.98,70.435,185.696,70.99,186.938,71.937z"/>
					<path d="M66.311,134.539C64.933,133.614,66.067,134.428,66.311,134.539L66.311,134.539z"/>
					<path d="M60.678,128.305c0.313,0.2,0.569,0.316,0.662,0.264C61.165,128.564,60.938,128.473,60.678,128.305z"/>
					<path d="M129.251,175.346c0.048,0.008,0.086,0.015,0.145,0.024C128.917,175.208,129.002,175.238,129.251,175.346z"/>
					<path d="M64.363,132.94c0.487,0.407,1.056,0.856,1.683,1.331C65.781,134.045,65.271,133.642,64.363,132.94z"/>
					<path d="M64.521,133.301c-0.465-0.348-0.834-0.624-1.184-0.885C63.123,132.351,63.255,132.507,64.521,133.301z"/>
					<path d="M68.213,135.844c-0.776-0.54-1.487-1.062-2.167-1.572c0.248,0.208,0.346,0.306,0.265,0.268
						C66.711,134.813,67.278,135.202,68.213,135.844z"/>
					<path d="M37.34,137.357c-0.053-0.105-0.112-0.224-0.17-0.339C36.066,135.637,36.51,136.275,37.34,137.357z"/>
					<path d="M94.963,134.326c0.075,0.024,0.113,0.037,0.184,0.061c-0.07-0.037-0.157-0.083-0.223-0.117L94.963,134.326z"/>
					<path d="M89.293,131.95c2.634,0.773,3.899,1.392,5.631,2.319l-1.284-1.969c0,0-1.075-0.066-2.149-0.133
						C90.414,132.093,89.293,131.95,89.293,131.95z"/>
					<path d="M175.453,211.902c0,0,1.061,0.229,2.12,0.46c1.063,0.224,2.14,0.412,2.14,0.412c-2.649,0.097-4.902-0.142-5.999-0.205
						c-1.094-0.075-1.045,0.026,0.943,0.59c0.403-0.623,4.573-0.035,8.845,0.082c4.26,0.198,8.625-0.287,8.844-1.019
						c0,0,0.733,0,1.474-0.051c0.37-0.02,0.741-0.04,1.019-0.055c0.279-0.027,0.465-0.045,0.465-0.045
						c-0.843,0.154-0.964,0.225-1.793,0.345c2.902-0.092,3.938-0.676,5.097-1.291c0.575-0.357,1.202-0.67,2.098-1.159
						c0.453-0.228,0.972-0.488,1.588-0.799c0.623-0.295,1.331-0.672,2.167-1.122c0.584-0.307,1.104-0.641,1.563-0.892
						c0.445-0.274,0.802-0.519,1.058-0.661c0.507-0.291,0.579-0.232-0.107,0.404c0,0,0.285-0.252,0.714-0.63
						c0.393-0.421,0.961-0.931,1.436-1.53c0.241-0.295,0.481-0.59,0.707-0.866c0.214-0.285,0.395-0.565,0.557-0.799
						c0.322-0.469,0.521-0.789,0.521-0.789c0.951-1.464,0.96-0.97-0.057,0.484c0,0,0.094-0.112,0.23-0.326
						c0.135-0.216,0.326-0.524,0.557-0.895c0.242-0.364,0.47-0.815,0.711-1.3c0.258-0.479,0.494-1.002,0.696-1.538
						c0.107-0.266,0.215-0.531,0.319-0.793c0.087-0.24,0.172-0.477,0.254-0.706c0.162-0.455,0.313-0.88,0.442-1.243
						c0.259-0.729,0.432-1.214,0.432-1.214l0.016,0.073c0.207-1.178,0.817-3.793,1.127-5.069c0.898-1.907-0.223,1.036,0.119,0.591
						l1.228-4.414c0.946-1.65,0.027,2.056-1.108,5.006c1.368-1.774,1.604-2.707,1.984-4.239c0.362-1.547,0.906-3.66,2.679-7.987
						c0,0-0.29,1.053-0.58,2.104c-0.301,1.048-0.602,2.095-0.602,2.095c1.614-2.424,2.437-5.733,4.149-10.516
						c-0.265,0.558-1.197,2.925-1.987,4.472c-0.797,1.546-1.373,2.329-0.807-0.124c0.492-1.326,1.073-3.118,1.431-5.853
						c0.46,0.088,1.027-2.538,1.445-5.944l0.604,0.321c0.256-3.755-0.172-3.511-0.396-5.723c-0.003-1.061-0.006-1.91-0.008-2.607
						c0.013-0.707,0.022-1.259,0.03-1.713c0.057-0.916,0.178-1.441,0.254-2.002c-0.173-0.882-0.357-1.454-0.486-1.808
						c-0.125-0.353-0.195-0.486-0.23-0.478c-0.068,0.019,0.003,0.605,0.049,1.146c0.048,0.54,0.015,1.045-0.111,0.906
						c-0.137-0.135-0.359-0.92-1.105-2.843c-0.938-2.754-2.289-4.896-3.96-6.832c-1.686-1.932-3.717-3.676-6.414-5.515
						c-2.938-2.43,0.779,0.07-0.218-0.883c0,0-0.763-0.394-1.524-0.786c-0.77-0.361-1.539-0.723-1.539-0.723
						c-0.68-0.464-0.372-0.448-0.215-0.439c-2.454-1.332-0.539,0.408-4.3-1.747c-0.333-0.009-0.956-0.341-1.766-0.886
						c-0.809-0.546-1.813-1.294-3.005-2.054c-1.155-0.789-2.542-1.567-4.028-2.18c-1.498-0.597-3.169-0.961-4.65-0.875
						c-1.438-0.279,0.74-0.343,0.327-0.618c-1.045-0.004-1.943-0.033-2.671,0.081c-0.733,0.09-1.388,0.122-1.901,0.235
						c-1.048,0.198-1.827,0.319-2.515,0.488c-1.393,0.325-2.608,0.65-5.505,1.471c0,0-1.272,0.083-2.544,0.167
						c-1.271,0.092-2.542,0.146-2.542,0.146c3.764-0.033-0.865,1.214-4.991,2.14c1.349,0.1,2.505,0.155,3.275,0.148
						c0,0-1.652,0.314-3.314,0.563c-1.661,0.264-3.323,0.527-3.323,0.527c-0.82-0.018-0.166-0.309,0.897-0.69
						c-0.447,0.104-0.875,0.205-1.202,0.282c-2.414-0.038-1.202-0.488,0.461-1.018c0.828,0.046,1.643,0.092,2.438,0.137
						c1.602-0.556,3.08-1.162,2.691-1.499c-0.414,0.137-1.239,0.278-2.145,0.414c0.414-0.15,0.674-0.273,0.474-0.316
						c-0.235-0.042-0.909,0.172-1.976,0.45l-1.578-0.548l-0.334,0.32c-0.001,0-0.544,0.031-1.362,0.052
						c-0.817,0.025-1.906,0.059-2.996,0.092c-2.175,0.087-4.357,0.089-4.357,0.09c-6.168,1.093-11.547,2.497-21.522,2.409
						c2.484-0.432,0.562-0.833,0.719-1.446c2.677,0.756,7.663-0.058,12.753-0.094c-2.664,0.004-2.082-0.313-1.409-0.429
						c0,0-2.267,0.203-4.544,0.344c-2.277,0.146-4.563,0.232-4.563,0.232c0.216-0.501-1.929-0.426-4.301-0.746
						c0.879,0.539-0.827,0.641-3.225,0.577c-2.396-0.06-5.476-0.307-7.347-0.321c-0.197-0.363,0.718-0.594,5.234-0.188
						c-4.921-1.115-6.552,0.667-11.393-0.485c1.105,0.111,1.691,0.224,2.144,0.098c-2.61,0.054-8.884-0.957-7.366-1.07l1.103,0.129
						c-3.654-0.494-9.211-1.269-14.032-1.848c-2.412-0.284-4.64-0.508-6.376-0.559c-1.753-0.028-2.944,0.019-3.617,0.602
						c-0.053,0,0.042-0.156,0.207-0.317c0.156-0.159,0.351-0.322,0.557-0.476c0.398-0.3,0.841-0.56,1.099-0.636
						c0,0-0.248,0.042-0.682,0.115c-0.246,0.053-0.488,0.083-1.026,0.26c-0.137,0.05-0.315,0.111-0.578,0.27
						c-0.231,0.137-0.813,0.57-0.916,1.385c-0.018,0.172-0.013,0.354,0.015,0.523c0.025,0.116,0.06,0.233,0.104,0.346
						c0.095,0.233,0.156,0.296,0.252,0.441c0.068,0.082,0.139,0.158,0.212,0.231l0.18,0.15c0.444,0.319,0.795,0.449,1.177,0.602
						c0.375,0.142,0.757,0.264,1.15,0.381c0.784,0.233,1.609,0.443,2.436,0.645c3.299,0.79,6.601,1.448,6.601,1.448
						c-1.365,0.188,2.029,3.612-3.772,1.47c1.577,0.828,3.533,1.831,7.052,3.078c-1.065-0.575-2.335-2.17-0.801-1.572
						c3.829,2.543,2.686,1.658,7.571,4.471c-1.604-0.855,0.682-1.104,3.316-0.009c-0.483-0.011-0.206,1.138-1.222,0.854
						c0,0,1.757,0.405,3.515,0.81c1.759,0.385,3.518,0.771,3.518,0.771c-1.726-0.458-0.64,0.783,0.746,1.64
						c-0.621-0.457,5.761,2.188,7.599,2.695l-2.754-1.27c7.514,2.879,7.999,1.164,15.509,3.743c-0.982-0.084-2.71,0.611,1.089,2.012
						c1.945,0.058,8.647-0.146,15.481,1.773l1.164,0.771c0,0,1.31,0.367,2.616,0.787c0.654,0.198,1.308,0.418,1.797,0.59
						c0.49,0.168,0.816,0.28,0.816,0.28c-1.756-0.305-4.994-0.835-8.433-1.326c-3.439-0.5-7.09-1.019-9.645-1.483
						c2.763,1.182,0.679,0.625,4.932,1.999c1.4,0.79-2.456-0.322-3.718-0.713c0,0,2.453,0.863,4.907,1.728
						c2.443,0.871,4.841,1.781,4.841,1.781c-0.103-0.389,1.813,0.105,3.681,0.685c1.872,0.573,3.659,1.27,3.607,0.938
						c0-0.001-0.63-0.257-1.598-0.608c-0.971-0.351-2.287-0.785-3.617-1.198c-2.67-0.814-5.396-1.546-5.396-1.546
						c-0.107-0.391,1.592-0.329,4.168,0.199c2.554,0.546,6.075,1.507,9.18,3.365c0.711,0.585,0.247,0.655-0.355,0.634
						c-0.59-0.035-1.396-0.101-1.38,0.027c0.457,0.093,1.97,0.789,3.109,1.674c0.261,0.227,0.569,0.441,0.733,0.675
						c0.204,0.224,0.394,0.437,0.468,0.63c0.266,0.378,0.219,0.661,0.245,0.753c-0.024,0-0.159-0.389-0.513-0.75
						c-0.352-0.365-0.805-0.72-0.827-0.715c0.487,0.591,0.842,1.032,0.967,1.412c0.141,0.187,0.102,0.396,0.197,0.612l-0.012,0.379
						c0.006,0.13,0.01,0.269-0.051,0.424c-0.249,1.189-1.324,2.817-3.182,4.012c-0.542,0.497-1.624,0.936-2.522,1.287
						c-0.952,0.302-1.697,0.589-1.761,0.798c1.279-0.169,2.334,0.136,2.946,0.677c0.6,0.523,0.717,1.341-0.042,2.038
						c-0.292,0.132-2.505,1.073-4.959,1.512c-0.604,0.149-1.231,0.228-1.837,0.313c-0.607,0.075-1.187,0.188-1.733,0.209
						c-1.089,0.067-1.984,0.135-2.484,0.095c-1.445-0.136-0.425-0.588,0.593-1.112c1.021-0.535,2.05-1.061,0.865-1.112
						c-0.066,0.191-1.506,0.708-2.131,0.829c-1.759,0.031,0.652-0.593-3.108-0.168c-0.567,0.821-7.755,0.212-1.756,0.693
						c-1.87,0.162-2.872,0.147-3.952,0.063c-1.081-0.05-2.238-0.183-4.441-0.287c1.396,0.546-4.096,1.237-7.944,0.775
						c0.25-0.136-0.562-0.493-0.953-0.659c-3.844-0.707-6.744-1.505-9.544-2.368c-2.784-0.916-5.497-1.824-8.85-3.201
						c-0.573-0.385-3.671-1.99-2.194-1.654c-1.006-0.288-1.946-0.517-3.952-1.485c-1.743-1.299-0.654-0.704,0.567-0.111
						c1.241,0.565,2.593,1.169,1.286,0.135c-0.447,0.291-5.339-2.105-8.045-3.754c0.117,0.259,0.536,0.675,1.176,1.129
						c0.649,0.438,1.495,0.951,2.418,1.464c0.949,0.469,1.958,0.967,2.929,1.39c0.983,0.395,1.906,0.764,2.645,1.06
						c-0.167,0.376-1.605,0.195-3.876-0.56c-2.259-0.771-5.331-2.184-8.56-4.401c-0.628-0.458-1.127-0.836-1.521-1.146
						c-0.379-0.329-0.651-0.594-0.849-0.795c-0.394-0.404-0.477-0.575-0.439-0.64c0.076-0.13,0.634,0.156,0.194-0.157
						c-0.268-0.243-0.526-0.479-0.776-0.705c-0.236-0.242-0.464-0.475-0.684-0.699c-0.444-0.445-0.856-0.856-1.241-1.24
						c-0.731-0.804-1.35-1.498-1.923-2.089c-1.034-1.273-1.899-2.137-2.561-3.087c-0.345-0.457-0.7-0.929-1.027-1.397
						c-0.295-0.445-0.606-0.914-0.958-1.444c-0.699-1.063-1.532-2.385-2.843-4.225c-1.946-3.083,0.708-0.827,0.482-1.684
						c1.689,1.783,2.697,3.401,3.466,4.892c0.391,0.746,0.692,1.47,1.027,2.187c0.356,0.726,0.728,1.446,1.152,2.187
						c0,0-0.459-0.944-0.918-1.89c-0.236-0.473-0.435-0.933-0.594-1.282c-0.153-0.351-0.271-0.577-0.271-0.577
						c0.45,0.635,1.084,1.681,1.745,2.745c0.159,0.269,0.319,0.537,0.477,0.803c0.176,0.254,0.35,0.504,0.517,0.745
						c0.329,0.486,0.622,0.944,0.848,1.339c-0.336-0.731-1.274-2.024-2.202-3.891c-0.498-0.909-0.999-1.978-1.664-3.04
						c-0.65-1.074-1.43-2.166-2.286-3.252c-3.423-4.38-8.401-8.228-11.854-10.944c-1.373-0.762-3.693-2.141-2.769-1.235L70.094,134
						c1.83,1.819-4.615-2.517-1.858-0.33c-1.609-0.941-3.351-1.892-5.206-3.079c-1.833-1.215-3.865-2.588-5.67-4.883
						c0,0-0.05-0.308-0.099-0.616c-0.044-0.306-0.066-0.617-0.066-0.617c-0.044,0.098,0.417,0.93,1.141,1.752
						c0.716,0.829,1.66,1.651,2.307,2.057c-0.939-0.616-2.453-2.117-3.567-4.04c-0.557-0.955-0.948-2.049-1.096-3.077
						c-0.159-1.033-0.071-1.96-0.073-2.679c0,0-0.105,0.243-0.222,0.637c-0.123,0.388-0.238,0.939-0.263,1.506
						c-0.081,1.148,0.263,2.247,0.263,2.247c-0.484-1.026-0.801-2.348-0.661-3.694c0.13-1.343,0.623-2.624,1.267-3.746
						c1.309-2.254,3.15-4.016,5.13-5.447c-1.067,0.447-1.278,0.664-1.616,0.955c-0.338,0.31-0.806,0.641-2.363,1.736
						c0.73-0.411,0.482-0.063-0.164,0.75c-0.643,0.802-1.715,2.114-2.419,3.809c-0.333,0.854-0.581,1.777-0.612,2.638
						c-0.05,0.854,0.07,1.586,0.196,2.061c0.144,0.469,0.257,0.708,0.304,0.632c0.065-0.081-0.008-0.452,0.007-1.248
						c-0.05,1.177,0.252,2.257,0.672,3.164c0.423,0.918,0.972,1.681,1.566,2.394c1.196,1.435,2.594,2.674,4.235,4.355
						c0.005-0.272-1.078-1.252,2.11,1.18c0.181,0.055,0.574,0.242,0.817,0.359c0.093,0.073,0.125,0.098,0.21,0.165
						c-0.06-0.053-0.105-0.092-0.165-0.145c0.155,0.071,0.171,0.075-0.064-0.055c-0.719-0.613-1.282-1.15-1.471-1.427
						c1.888,0.813,6.976,4.297,8.743,5.356c1.768,1.444-0.899-0.386-0.033,0.534c0,0,0.665,0.394,1.33,0.787
						c0.656,0.406,1.311,0.813,1.311,0.813c0,0.528,4.012,4.424-0.118,1.205c0,0,0.904,0.757,1.771,1.541
						c0.864,0.786,1.684,1.604,1.684,1.604c0.88,1.052,1.897,2.289,2.817,3.511c0.926,1.218,1.749,2.423,2.395,3.337
						c0.254,0.463,0.548,0.978,0.842,1.465c0.322,0.519,0.724,1.113,1.001,1.515c0.576,0.832,0.833,1.161,0.138,0.291
						c0,0,0.069,0.112,0.189,0.31c0.123,0.195,0.282,0.486,0.526,0.795c0.477,0.622,1.069,1.491,1.738,2.283
						c0.693,0.77,1.357,1.566,1.903,2.109c0.553,0.533,0.922,0.89,0.922,0.89l-0.029,0.131c2.82,2.919,6.234,5.272,9.862,7.369
						c3.64,2.099,7.508,3.958,11.538,5.941c2.509,0.84,5.107,1.611,9.313,2.867l0.733,0.598c1.653,0.352,4.104,1.01,6.356,1.485
						c2.251,0.468,4.291,0.801,5.039,0.674c1.74,0.773,5.868,1.266,10.326,1.245c4.46,0.007,9.224-0.618,12.281-1.185l0.128-0.538
						c2.072-0.467,4.104-0.991,6.188-1.942c2.067-0.929,4.276-2.112,6.328-4.212l-0.571-0.099c0.833-0.866,1.669-1.829,2.6-3.047
						c0.422-0.673,0.894-1.333,1.229-2.231c0.365-0.852,0.564-1.939,0.467-3.081c-0.08-0.548-0.229-1.131-0.434-1.648
						c-0.25-0.469-0.477-1.044-0.81-1.417c-0.315-0.408-0.638-0.852-0.997-1.163c-0.353-0.338-0.712-0.704-1.087-0.969
						c-1.491-1.189-3.08-2.041-4.684-2.773c0.504,0.04,2.126,0.854,3.209,1.664c-3.578-2.704-7.771-3.959-11.782-5.16
						c-4.029-1.172-7.966-2.171-11.313-3.659c-1.773-0.409-3.009-0.873-4.178-1.379c0.157,0.052,0.309,0.093,0.433,0.12
						c-0.175-0.061-0.434-0.148-0.701-0.239c-0.735-0.324-1.498-0.661-2.313-1.02c0.683,0.341,1.344,0.655,1.933,0.895
						c-1.333-0.429-3.359-1.053-5.361-1.613l-0.677-0.742c-0.163-0.051-0.293-0.092-0.46-0.145c-1.863-0.832-1.62-0.318-0.708,0.38
						c-1.016-0.267-1.954-0.489-2.69-0.63c-1.301-1.278-5.219-1.584-7.039-3.157c-0.723-0.058-3.189-0.896-5.624-1.72
						c-2.439-0.811-4.848-1.611-5.528-1.422c-0.02-0.131-0.568-0.412,0.471,0.008c-2.094-0.981-4.183-1.962-6.19-2.573l-0.658-0.951
						l-4.973-1.274c-2.66-1.588-3.714-2.308-0.75-1.493c-3.503-1.166-4.868-1.744-6.093-2.27c-0.6-0.265-1.168-0.516-1.936-0.854
						c-0.355-0.162-0.812-0.378-1.127-0.562c-0.031-0.018-0.064-0.037-0.071-0.034c-0.007,0.005,0.009-0.012-0.018,0.01
						c-0.046,0.037-0.079,0.068-0.106,0.096c-0.061,0.058-0.126,0.113-0.195,0.164c-0.163,0.106-0.229,0.175-0.357,0.227
						c-0.193,0.115-0.295,0.028-0.19,0.094c0.024,0.026,0.12,0.127,0.152,0.228c0.095,0.153,0.106,0.257,0.187,0.478l0.045,0.152
						c0.003,0.015,0,0.003,0,0.005c-0.006-0.003,0.006-0.006,0.012-0.009c0.016-0.007,0.023-0.017,0.052-0.023
						c0.045-0.016,0.108-0.03,0.175-0.045c0.141-0.026,0.302-0.051,0.482-0.067c0,0-0.07,0.098-0.141,0.195
						c-0.064,0.099-0.128,0.198-0.128,0.198c0.939-0.013,2.425,0.022,3.747,0.094c1.335,0.075,2.564,0.198,3.207,0.454
						c2.428,0.712,8.576,1.682,15.752,2.567c7.175,0.899,15.37,1.616,21.857,2.214c-1.233-0.639,0.268-0.434,2.15-0.212
						c1.883,0.226,4.156,0.45,4.419-0.002c0.751,0.283,2.573,0.443,0.459,0.675c6.651-0.228,10.045,0.218,14.562-0.803
						c0.774,0.233-1.391,0.485-0.713,0.61c0.528-0.09,2.091-0.361,2.791-0.236c0.686,0.125-0.954,0.287-1.996,0.467
						c6.77-0.487,7.381-1.473,7.798-2.281c3.438,0.05,5.147-0.187,7.529-1.005c1.215,0.105,3.231,0.118-0.929,0.754
						c1.173-0.139,4.775-0.48,8.081-0.989c3.308-0.513,6.276-1.035,6.354-1.366c0.37,0.028,1.157-0.041,1.934-0.15
						c0.782-0.133,1.506-0.15,1.805-0.219c2.473-0.026,3.722,0.297,4.975,0.703c0.621,0.229,1.25,0.383,1.988,0.753
						c0.742,0.331,1.618,0.698,2.731,1.314l-1.183-0.757c1.05,0.138,2.019,0.581,3.147,1.279c1.122,0.725,2.436,1.62,4.216,2.7
						l-0.146,0.003c3.921,2.742,4.663,3.323,5.526,3.858c0.417,0.27,0.809,0.565,1.536,1.163c0.702,0.618,1.745,1.558,3.168,3.308
						l0.02-0.694c0.328-0.021,0.812,0.379,1.408,1.044c0.275,0.351,0.574,0.77,0.894,1.234c0.306,0.474,0.593,1.02,0.912,1.578
						c1.181,2.32,2.03,5.255,2.594,7.794c0.039-0.003-0.12-1.905-0.12-1.905c0.547,1.352,0.51,3.445,0.144,5.437
						c-0.365,2.005-0.975,3.921-1.246,5.323c-0.179,0.605,0.008-0.99-0.016-1.843c-0.311,1.817-0.516,2.787-0.569,3.313
						c-0.053,0.525,0.038,0.604,0.161,0.628c0.237,0.048,0.664-0.132,0.159,2.679c-0.572,0.943-0.524-1.498-1.472,2.201
						c-0.361,0.889-0.808,3.645-1.574,6.806c-0.758,3.159-1.803,6.71-3.015,9.121c0.642-1.024,1.279-2.04,0.557,0.577
						c-0.662,1.975-1.858,4.533-2.969,7.074c-0.277,0.618-0.547,1.307-0.802,1.855c-0.256,0.548-0.474,1.096-0.745,1.584
						c-0.123,0.252-0.242,0.498-0.359,0.738c-0.132,0.229-0.254,0.457-0.367,0.682c-0.21,0.461-0.451,0.858-0.624,1.26
						c-0.34,0.342-0.515,0.42-0.579,0.393c-0.81,1.166-2.525,2.775-4.454,3.938c-1.905,1.198-3.946,1.958-4.765,2.436
						c-0.802-0.22-2.298,0.029-4.195,0.266c-1.889,0.26-4.174,0.538-6.403,0.668c-4.463,0.253-8.638-0.038-8.507-0.786
						c0-0.001-2.392-0.246-4.777-0.618c-2.387-0.354-4.763-0.832-4.763-0.832l0.281-0.101c-6.027-1.363-8.221-1.659-10.43-1.863
						c-1.36-0.486-0.308-0.342-0.174-0.388c-4.331-1.373-6.683-2.216-8.909-2.855c-2.219-0.67-4.308-1.144-8.028-2.104l-0.576-0.744
						c-1.02-0.228-4.041-1.558-7.824-3.27c-3.787-1.708-8.331-3.804-12.514-5.402c0.103-0.015,0.312-0.025,0.987,0.204
						c-4.705-1.807-9.983-4.743-14.539-7.292c-4.56-2.548-8.41-4.703-10.461-4.808c0,0-1.504-0.716-3.009-1.432
						c-1.499-0.73-2.998-1.461-2.998-1.461c7.405,4.396-1.505,0.055,1.423,2.068c-3.007-1.586-7.294-4.905-3.66-2.859l0.518,0.41
						c0.896-0.021-1.373-1.439-3.773-2.947c-2.398-1.513-4.927-3.117-4.656-3.33c-3.574-2.243-7.031-4.622-10.47-7.016
						c-3.43-2.391-6.792-4.817-10.076-7.274c-3.277-2.463-6.458-4.979-9.466-7.589c-3.001-2.612-5.833-5.33-8.229-8.252l0.58,1.813
						c0,0-0.215-0.258-0.538-0.645c-0.312-0.394-0.781-0.886-1.159-1.433c-0.395-0.537-0.79-1.073-1.085-1.477
						c-0.265-0.419-0.441-0.697-0.441-0.697c-0.305-0.631-0.433-1.092-0.235-1.003c0.098,0.043,0.278,0.224,0.555,0.587
						c0.274,0.366,0.641,0.917,1.215,1.661c-0.213-0.455-0.58-0.975-0.939-1.54c-0.374-0.557-0.837-1.115-1.192-1.663
						c-0.797-1.058-1.386-1.982-1.489-1.997c-0.355-0.838-0.448-1.468-0.549-1.873c-0.086-0.409-0.105-0.617-0.076-0.68
						c0.058-0.126,0.308,0.324,0.589,0.909c0.25,0.595,0.656,1.293,0.909,1.727c0.25,0.436,0.363,0.605,0.159,0.113
						c0,0-0.309-0.655-0.585-1.321c-0.231-0.679-0.463-1.356-0.463-1.356l0.118,0.642c-0.542-1.058-0.728-1.675-1.053-2.523
						c-0.102-0.435-0.201-0.936-0.306-1.601c-0.054-0.332-0.04-0.712-0.058-1.142c-0.007-0.431-0.037-0.914,0.038-1.465
						c0.1-0.694,0.174-1.125,0.256-1.398c0.099-0.273,0.173-0.389,0.234-0.454c0.122-0.128,0.193-0.051,0.301-0.584
						c0.024,0.009,0.059-0.076,0.108-0.325c0.038-0.25,0.114-0.664,0.267-1.313c0,0,0.105-0.393,0.263-0.982
						c0.163-0.588,0.461-1.363,0.719-2.142c0.284-0.775,0.629-1.539,0.859-2.117c0.114-0.289,0.222-0.527,0.305-0.692
						c0.08-0.166,0.125-0.26,0.125-0.26c0,0-0.427,0.546-0.796,1.116c-0.386,0.57-0.771,1.14-0.771,1.14
						c0.217-0.717,0.465-1.45,0.716-2.093c0.275-0.637,0.517-1.195,0.682-1.577c0.316-0.77,0.27-0.872-0.695,0.425
						c1.376-1.919,4.505-7.485,8.062-12.628c3.514-5.134,7.056-10.107,8.008-11.212c2.167-3.792,4.613-7.33,7.723-11.603
						c-0.863,0.995-1.852,1.26,0.876-2.403c0.046,1.062,1.402-0.521,3.147-2.596c1.775-2.022,4.125-4.329,5.818-4.883
						c-0.69,0.34-0.46,0.046,0.221-0.568c0.342-0.305,0.862-0.606,1.405-0.979c0.546-0.367,1.145-0.769,1.802-1.084
						c0.637-0.343,1.262-0.679,1.806-0.972c0.557-0.283,1.049-0.51,1.366-0.697c0.639-0.367,0.633-0.516-0.636-0.232
						c3.511-1.342,0.399,0.362,3.152-0.417c4.089-1.846,8.875-3.375,13.899-4.992c2.515-0.818,5.094-1.656,7.714-2.508
						c2.609-0.889,5.25-1.818,7.887-2.814c0.103-0.215-1.759,0.142,0.415-0.881c0,0,1.442-0.231,2.885-0.462
						c0.357-0.057,0.713-0.114,1.048-0.167c0.337-0.039,0.657-0.054,0.928-0.077c0.541-0.041,0.902-0.068,0.902-0.068
						c2.045-0.555,1.708-1.528,5.698-1.477c-0.564-0.064-1.424-0.161,0.007-0.433c10.698-0.963,21.754,0.75,32.137,4.671
						c10.382,3.914,20.104,9.856,28.323,17.222c-2.164-2.079-0.556-0.919,1.253,0.485c-1.123-0.979,0.29-0.325,0.209-0.69
						c0,0,0.432,0.389,1.08,0.973c0.634,0.598,1.48,1.395,2.326,2.192c0.829,0.813,1.657,1.625,2.279,2.235
						c0.608,0.622,1.015,1.036,1.015,1.036c0.853,0.308,2.717,1.955,4.448,3.608c1.742,1.642,3.354,3.281,3.919,3.408l-2.154-1.998
						c1.656,1.103,0.979-0.146-0.001-1.723c-0.985-1.567-2.309-3.426-1.776-3.578c-1.915-1.204-3.901-3.363-6.267-5.677
						c-2.354-2.316-5.149-4.727-8.476-6.369c-1.205-1.085,1.313,0.544,0.73-0.136c-0.881-0.368-1.789-0.854-2.89-1.566
						c-1.123-0.68-2.423-1.61-4.139-2.79l0.454,0.162c-4.973-3.074-8.623-5.126-12.532-7.1c-3.919-1.94-8.063-3.94-14.453-5.861
						l0.822,0.707c-2.744-0.768-3.272-1.132-4.563-1.494c-0.845,0.011-0.771,0.12-0.242,0.279c0.264,0.081,0.645,0.167,1.08,0.274
						c0.433,0.12,0.921,0.254,1.411,0.39c0.981,0.269,1.971,0.542,2.521,0.749c0.543,0.226,0.649,0.371-0.114,0.346
						c-0.844-0.457-2.469-1.062-4.503-1.592c-1.022-0.241-2.142-0.486-3.304-0.732c-1.167-0.216-2.392-0.362-3.6-0.544
						c-4.854-0.612-9.609-0.581-10.933-1.006c-4.442,0.313,1.33,0.453-3.09,0.766c0-0.025-1.197-0.147-1.197-0.148l-1.059,0.544
						c-2.875,0.309-4.367,0.372-4.537,0.138c0.702-0.129,1.948-0.549,2.709-0.648c-0.963,0.019-2.082,0.294-3.262,0.548
						c-1.177,0.271-2.415,0.546-3.525,0.976c-1.119,0.393-2.163,0.761-3.005,1.057c-0.833,0.297-1.411,0.533-1.724,0.609
						c0,0,0.246-0.076,0.614-0.191c0.367-0.114,0.852-0.269,1.381-0.408c1.035-0.284,2.07-0.568,2.07-0.568
						c-2.947,0.966-5.714,2.082-8.708,3.149c-2.959,1.089-6.019,2.13-9.05,3.208c-6.074,2.146-12.147,4.183-17.384,6.737
						l0.896-0.132c-2.004,0.893-3.368,1.729-4.487,2.254c-1.082,0.645-1.893,1.119-2.741,1.59c-0.78,0.573-1.643,1.115-2.699,2.011
						c-0.504,0.471-1.072,1.014-1.733,1.664c-0.642,0.661-1.283,1.482-2.075,2.422l0.193-0.307c-0.583,0.806-1.156,1.77-1.866,2.761
						c-0.7,0.985-1.449,2.04-2.209,3.108c1.195-2.115-3.056,3.388-1.449,0.649c-5.041,7.939-2.384,4.002-5.257,9.539l-1.122,0.954
						c-0.945,1.903-0.903,2.148-3.571,6.054c1.993-3.342-2.21,2.126-0.032-1.652c-3.215,3.804-5.214,6.99-6.714,9.651
						c-1.537,2.647-2.63,4.751-4.293,6.497c-0.63,2.319,0.487,0.406,1.754-1.668c1.267-2.079,2.649-4.375,2.057-3.222
						c1.427-1.649-1.393,3.602-2.932,6.34c-0.372,0.708-0.799,1.319-1.261,1.972c-0.457,0.662-0.943,1.367-1.515,2.196
						c-1.025,1.728-2.459,4.059-3.213,8.302c0.165-0.838,0.059-0.925,0.268-1.745c-0.949,3.094-0.706,6.306-0.306,10.307
						c0.496,1.058,0.91,2.269,1.27,3.303c0.441,0.992,0.812,1.808,1.312,1.904c0,0-0.066-0.101-0.15-0.296
						c-0.088-0.192-0.214-0.468-0.366-0.799c-0.147-0.333-0.336-0.714-0.507-1.137c-0.15-0.433-0.311-0.895-0.471-1.356
						c-0.341-0.918-0.49-1.899-0.682-2.611c-0.102-0.731-0.169-1.219-0.169-1.219c0.129,1.113,0.493,2.164,0.835,3.232
						c0.441,1.04,0.884,2.102,1.498,3.165c1.183,2.147,2.704,4.419,4.763,7.234c-0.484-0.29-1.943-1.805-2.84-2.965
						c0.451,0.956,1.135,1.692,1.753,2.488c0.674,0.744,1.343,1.502,1.97,2.369c-0.494,0.044-2.093-1.629-3.774-3.938
						c-1.678-2.321-3.218-5.409-4.134-7.714c0.167,1.188,1.106,3.352,2.024,4.759c0.423,0.732,0.79,1.313,0.945,1.602
						c0.143,0.297,0.041,0.332-0.468-0.064c1.39,1.183,2.518,2.911,4.022,4.708c0.715,0.938,1.563,1.824,2.457,2.762
						c0.938,0.875,1.935,1.791,3.11,2.543l-0.592,0.105c0.705,0.532,2.195,1.592,3.423,2.613c0,0-0.656-0.352-1.312-0.703
						c-0.657-0.354-1.3-0.739-1.3-0.739c3.702,2.582,6.345,5.867,9.933,8.183c-7.108-5.365-1.256-1.643-4.019-4.219
						c4.516,3.115,5.621,4.235,6.805,5.563c1.198,1.297,2.493,2.768,7.583,6.133c-1.405-0.867-4.932-3.78-2.687-2.474
						c1.842,1.418,4.273,3.285,5.308,4.298c6.737,4.441-0.75-1.097,2.257,0.586c1.945,2.016,3.427,2.036,6.496,3.802l-0.236,0.422
						c3.811,2.615,4.478,2.699,5.024,2.756c0.553,0.048,0.987,0.065,4.453,2.35l-3.356-1.234l3.806,2.076l-1.051,0.017
						c4.276,2.043,5.49,2.862,9.452,5.234c-0.772-0.82,0.946-0.46,4.545,1.45c2.321,1.558-1.603-0.316,3.553,2.312
						c-1.292-0.336-2.75-0.661-4.759-2.247c-0.3,0.019-1.28-0.344-1.586-0.337c2.481,1.731,6.631,3.609,8.503,4.554
						c-0.712-0.382-1.557-0.85-1.964-1.136c0,0,1.946,0.805,3.893,1.609c1.954,0.78,3.908,1.562,3.908,1.562
						c1.107,0.736,0.101,0.413-0.896,0.085c1.556,0.697,2.703,1.015,4.98,2.044c-0.747,0.072-0.79,0.523-4.058-0.854
						c0,0,1.853,0.767,3.705,1.532c1.86,0.745,3.721,1.49,3.721,1.49c0.415,0.38,3.555,2.12,2.552,1.826
						c3.97,2.032,10.305,3.643,15.699,6.021c0.312,0.042,0.912,0.186,2.105,0.574c5.161,2.007,9.678,4.085,16.165,5.421
						c0,0,0.854,0.425,1.706,0.85c0.859,0.419,1.719,0.837,1.719,0.837c5.056,1.149-4.683-2.121,3.72-0.236
						c5.981,1.169,2.078,1.108,4.138,1.767c3.07,0.291,8.35,0.587,13.95,1.612C178.647,212.35,177.188,212.082,175.453,211.902z
						 M220.665,176.86c-0.25,1.216-0.698,3.657-1.249,4.426C219.317,179.779,219.908,178.84,220.665,176.86z M158.946,131.267
						c0.887-0.232,2.279-0.268,3.869-0.215C161.678,131.185,160.388,131.272,158.946,131.267z M79.979,145.587
						c0.036,0.029,0.064,0.054,0.093,0.077c0.737,1.045,0.938,1.397,0.871,1.289C80.877,146.844,80.504,146.296,79.979,145.587z
						 M76.419,141.586c-0.445-0.319-0.461-0.244-0.339-0.039c0.358,0.167,1.266,0.974,2.189,1.99
						C78.094,143.179,77.68,142.602,76.419,141.586z M36.867,120.075l-0.299,0.979c0.119-1.147,0.209-1.559,0.263-1.595
						C36.879,119.42,36.84,119.748,36.867,120.075z"/>
					<path d="M169.606,129.595c0.347,0.04,0.454,0.115,0.542,0.195C170.61,129.647,170.608,129.556,169.606,129.595z"/>
					<path d="M137.207,201.625l-0.178-0.074c-0.112-0.012-0.173-0.004-0.216,0.01L137.207,201.625z"/>
					<path d="M151.374,174.195c1.12-0.054,1.735-0.129,2.163-0.096C153.566,173.957,153.063,174.001,151.374,174.195z"/>
					<path d="M53.684,119.911c0,0-0.013,0.35,0.02,0.876c0.034,0.524,0.153,1.22,0.356,1.863c0.401,1.308,1.084,2.297,1.084,2.297
						c-0.605-0.993-0.898-1.827-1.039-2.534c-0.082-0.35-0.12-0.672-0.137-0.992c-0.032-0.315-0.026-0.625-0.009-0.96
						C53.859,120.581,53.692,121.662,53.684,119.911z"/>
					<path d="M80.584,101.262c0.444-0.293,0.99-0.513,1.429-0.805l-0.228-0.135C79.792,101.359,78.465,102.231,80.584,101.262z"/>
					<path d="M56.535,116.244c0.263-0.032,0.682-0.603,1.309-1.361c0.628-0.755,1.464-1.705,2.425-2.608
						c-0.117,0.107-0.225,0.208-0.345,0.318c0.101-0.469-0.35-0.215-1.048,0.473C58.178,113.745,57.248,114.893,56.535,116.244z"/>
					<path d="M60.723,111.87c0.601-0.547,1.24-1.052,1.875-1.512C62.708,109.995,61.778,110.891,60.723,111.87z"/>
					<path d="M70.9,137.408c-0.877-0.783-0.9-0.019-1.338-0.544c-0.681-0.175,0.997,0.84,2.142,1.487
						C72.84,139.009,73.534,139.232,70.9,137.408z"/>
					<path d="M58.893,115.281c0,0-0.249,0.086-0.485,0.194c-0.243,0.107-0.485,0.215-0.485,0.215
						c-0.033-0.01-0.494,1.435-0.462,1.436c0,0,0.078-0.125,0.194-0.312c0.129-0.177,0.303-0.414,0.476-0.65
						C58.502,115.713,58.893,115.282,58.893,115.281z"/>
					<path d="M65.469,131.081c0,0-0.805-0.615-1.611-1.231c-0.803-0.621-1.586-1.269-1.586-1.269
						c-0.005,0.104-0.439-0.171-0.965-0.542C63.259,129.634,65.467,131.248,65.469,131.081z"/>
					<path d="M61.307,128.039c-1.014-0.829-1.942-1.676-2.505-2.162C59.29,126.41,60.449,127.436,61.307,128.039z"/>
					<path d="M56.761,120.21c0,0-0.019,0.293-0.038,0.586c0.015,0.296,0.03,0.593,0.03,0.593c0,0,0.134,0.7,0.431,1.349
						c0.279,0.657,0.694,1.242,0.694,1.242c0,0-0.57-0.852-0.869-1.812c-0.159-0.476-0.224-0.972-0.252-1.342
						C56.759,120.457,56.761,120.21,56.761,120.21z"/>
					<path d="M95.296,162.028c0,0,0.225,0.165,0.562,0.412c0.335,0.249,0.784,0.58,1.259,0.872c0.934,0.603,1.868,1.206,1.868,1.206
						c0.465,0.112-0.468-0.661-1.86-1.542C96.188,162.469,94.868,161.465,95.296,162.028z"/>
					<path d="M87.518,151.339c0.463,1.066,0.442,1.173,0.679,1.81l0.588-0.242c0,0-0.336-0.378-0.672-0.757
						C87.815,151.744,87.518,151.339,87.518,151.339z"/>
					<path d="M95.87,160.55c0.42,0.186,5.297,3.312,0.904,0.13C96.301,160.587,92.925,157.907,95.87,160.55z"/>
					<polygon points="158.217,174.45 157.16,174.791 157.584,175.726 					"/>
					<path d="M131.484,149.619c4.901,1.916,1.382-0.184,5.785,1.606c1.243,0.162-3.598-1.461-2.335-1.261
						C131.854,149.197,130.327,148.51,131.484,149.619z"/>
					<path d="M134.935,149.965c0.495,0.127,1.022,0.25,1.583,0.366C135.628,150.104,135.203,150.012,134.935,149.965z"/>
					<path d="M195.667,80.394c0,0,0.557,0.614,1.112,1.229c0.548,0.619,1.097,1.238,1.097,1.238l-1.275-1.743L195.667,80.394z"/>
					<path d="M200.69,84.368l0.058,1.01l1.745,1.047C202.01,85.91,200.971,84.877,200.69,84.368z"/>
					<path d="M224.243,167.792l-0.11-0.294c-0.26,0.511-0.427,1.327-0.801,2.929c-0.001,0,0.245-0.646,0.463-1.31
						C224.02,168.454,224.243,167.792,224.243,167.792z"/>
					<path d="M203.223,209.941c0,0,0.202-0.091,0.403-0.182c0.201-0.094,0.397-0.203,0.397-0.204c0,0-0.435,0.079-0.873,0.11
						c-0.432,0.038-0.864,0.076-0.864,0.076L203.223,209.941z"/>
					<path d="M163.429,210.915c1.553,0.388,3.421,0.66,5.003,1.002C164.969,211.328,163.176,210.092,163.429,210.915z"/>
				</g>
			</g>
		</g>
	</g>
</g>
</svg>
